# Blender v2.79 (sub 0) OBJ File: 'Bushes.blend'
# www.blender.org
mtllib lowpolybush.mtl
o Bush02_Icosphere.001
v 0.628308 0.123905 -0.305491
v 0.417310 0.091358 0.465260
v -0.411082 0.088858 0.633394
v 0.091643 0.123905 -0.637137
v 0.567435 0.693719 0.188209
v -0.493990 0.660569 0.310526
v -0.255172 0.660569 -0.446776
v 0.429100 0.660566 -0.583169
v 0.067159 0.992237 0.002517
v 0.256619 -0.118156 0.266603
v 0.396992 -0.118156 -0.178524
v 0.586455 0.076794 0.085562
v 0.411384 0.076796 -0.554502
v 0.081550 -0.118156 -0.373459
v -0.005194 -0.207991 0.121666
v 0.055872 0.019756 0.651886
v -0.253780 -0.118156 -0.048811
v -0.533610 0.017200 0.244865
v -0.249398 0.063404 -0.429913
v 0.609737 0.392237 -0.522785
v 0.281837 0.387640 -0.730581
v 0.577563 0.392237 0.317935
v 0.717939 0.392237 -0.127198
v -0.200779 0.390632 0.771893
v 0.256746 0.364408 0.658490
v -0.642097 0.349084 0.074435
v -0.478711 0.354121 0.584637
v -0.201218 0.365156 -0.643615
v -0.544427 0.334881 -0.350065
v 0.586712 0.715093 -0.278610
v -0.277066 0.707679 0.559537
v -0.468106 0.706969 -0.095365
v 0.083782 0.695847 -0.622280
v 0.388098 0.902630 0.053846
v 0.279902 0.902628 -0.341740
v 0.041460 0.711239 0.608364
v -0.259554 0.896600 0.183742
v -0.122301 0.902630 -0.261569
v 0.572407 0.496761 0.015755
v 0.597601 0.567980 -0.037627
v 0.635121 0.484516 -0.051129
v 0.661032 0.481806 0.037627
v 0.623511 0.565270 0.051129
v 0.686226 0.553024 -0.015754
v -0.217879 0.781543 0.406602
v -0.192685 0.852762 0.353220
v -0.155165 0.769298 0.339718
v -0.129254 0.766588 0.428474
v -0.166775 0.850052 0.441976
v -0.104060 0.837807 0.375093
v 0.236316 0.546293 0.528064
v 0.261510 0.617512 0.474683
v 0.299030 0.534047 0.461181
v 0.324941 0.531337 0.549937
v 0.287421 0.614801 0.563439
v 0.350135 0.602556 0.496555
v -0.053212 0.771913 -0.324204
v -0.028018 0.843132 -0.377585
v 0.009502 0.759667 -0.391088
v 0.035413 0.756957 -0.302331
v -0.002107 0.840422 -0.288829
v 0.060607 0.828176 -0.355713
v 0.202706 0.925585 0.027514
v 0.227900 0.996804 -0.025867
v 0.265420 0.913340 -0.039370
v 0.291331 0.910629 0.049387
v 0.253811 0.994094 0.062889
v 0.316525 0.981848 -0.003995
v 0.384696 0.630154 -0.518477
v 0.409890 0.701373 -0.571859
v 0.447410 0.617908 -0.585361
v 0.473321 0.615198 -0.496605
v 0.435801 0.698662 -0.483102
v 0.498515 0.686417 -0.549986
v -0.333324 0.439746 -0.499819
v -0.308130 0.510965 -0.553200
v -0.270610 0.427500 -0.566702
v -0.244699 0.424790 -0.477946
v -0.282220 0.508254 -0.464444
v -0.219506 0.496009 -0.531327
v -0.472438 0.684361 -0.086726
v -0.447244 0.755580 -0.140108
v -0.409724 0.672116 -0.153610
v -0.383813 0.669405 -0.064854
v -0.421333 0.752870 -0.051352
v -0.358619 0.740624 -0.118235
v -0.517586 0.373241 0.453138
v -0.492392 0.444459 0.399757
v -0.454872 0.360995 0.386255
v -0.428961 0.358285 0.475011
v -0.466482 0.441749 0.488513
v -0.403768 0.429504 0.421629
v -0.078309 0.129399 0.719904
v -0.053115 0.200618 0.666522
v -0.015595 0.117153 0.653020
v 0.010316 0.114443 0.741776
v -0.027205 0.197907 0.755279
v 0.035509 0.185662 0.688395
v -0.552113 0.126473 -0.155659
v -0.526919 0.197692 -0.209041
v -0.489399 0.114227 -0.222543
v -0.463488 0.111517 -0.133787
v -0.501008 0.194982 -0.120285
v -0.438294 0.182736 -0.187168
v 0.113643 0.298440 -0.670113
v 0.138837 0.369659 -0.723495
v 0.176357 0.286194 -0.736997
v 0.202268 0.283484 -0.648241
v 0.164747 0.366948 -0.634738
v 0.227461 0.354703 -0.701622
v 0.508474 0.086162 0.275090
v 0.533668 0.157381 0.221708
v 0.571189 0.073916 0.208206
v 0.597099 0.071206 0.296962
v 0.559579 0.154670 0.310465
v 0.622293 0.142425 0.243581
vn 0.2793 -0.9561 0.0881
vn 0.5730 -0.7363 -0.3599
vn -0.2024 -0.9567 -0.2090
vn 0.7269 -0.4011 -0.5574
vn 0.8756 -0.2703 0.4004
vn -0.0904 -0.3627 0.9275
vn -0.3871 -0.4909 -0.7805
vn 0.9543 -0.1453 -0.2610
vn 0.7290 -0.0542 0.6823
vn -0.5596 0.0097 0.8287
vn -0.8988 -0.3932 -0.1936
vn -0.1626 -0.2232 -0.9611
vn 0.7375 0.6725 0.0612
vn -0.5640 0.7481 0.3498
vn -0.5936 0.6686 -0.4480
vn 0.1498 0.7430 -0.6523
vn -0.0566 0.9571 -0.2841
vn -0.1076 0.8347 -0.5400
vn -0.3900 0.6850 -0.6154
vn -0.3241 0.9420 -0.0871
vn -0.5421 0.8257 -0.1559
vn -0.6990 0.7142 0.0371
vn -0.0329 0.9072 0.4194
vn -0.0782 0.8922 0.4449
vn 0.1811 0.8892 0.4201
vn 0.4460 0.7226 0.5282
vn 0.2795 0.9571 -0.0764
vn 0.5377 0.8302 -0.1471
vn 0.5357 0.7385 -0.4094
vn 0.1439 0.4091 -0.9011
vn -0.1827 0.2193 -0.9584
vn -0.4490 0.4372 -0.7793
vn -0.7163 0.4882 -0.4985
vn -0.9142 0.3393 -0.2217
vn -0.9008 0.4342 -0.0078
vn -0.7150 0.4460 0.5385
vn -0.5523 0.3681 0.7480
vn -0.1344 0.5289 0.8380
vn 0.5661 0.4511 0.6899
vn 0.6795 0.3091 0.6654
vn 0.9155 0.3984 0.0560
vn 0.9316 0.2592 -0.2548
vn 0.7755 0.4151 -0.4757
vn -0.6266 0.3497 -0.6965
vn -0.5711 -0.4118 -0.7102
vn -0.6857 -0.6472 -0.3331
vn -0.9301 0.2181 0.2957
vn -0.9408 -0.1521 0.3028
vn -0.9288 -0.1770 0.3256
vn 0.2459 0.2865 0.9260
vn 0.2296 -0.1522 0.9613
vn 0.4839 -0.2978 0.8229
vn 0.9415 0.1594 0.2969
vn 0.9361 -0.1911 0.2952
vn 0.9347 -0.3506 0.0578
vn 0.5261 0.1665 -0.8339
vn 0.5213 -0.2457 -0.8172
vn 0.1652 -0.4331 -0.8861
vn -0.2739 -0.7032 -0.6561
vn -0.3874 -0.8306 -0.4001
vn -0.6669 -0.6697 -0.3267
vn -0.3783 -0.9234 0.0651
vn -0.3237 -0.9070 0.2694
vn -0.1495 -0.9021 0.4047
vn 0.1033 -0.9182 0.3825
vn 0.4051 -0.7733 0.4878
vn 0.0656 -0.7363 -0.6734
vn 0.2690 -0.8592 -0.4352
vn 0.0993 -0.9820 -0.1608
vn 0.6013 -0.7421 0.2963
vn 0.5720 -0.8002 0.1804
vn 0.7213 -0.6926 -0.0062
vn -0.1711 -0.9850 0.0199
vn -0.7310 -0.2244 -0.6444
vn -0.2736 -0.2722 0.9225
vn -0.8335 0.4884 0.2582
vn 0.8335 -0.4884 -0.2582
vn 0.2736 0.2722 -0.9225
vn 0.7310 0.2244 0.6444
vn 0.1711 0.9850 -0.0199
usemtl Bush
s off
f 15//1 11//1 10//1
f 1//2 11//2 13//2
f 15//3 17//3 14//3
f 1//4 13//4 20//4
f 2//5 12//5 22//5
f 3//6 16//6 24//6
f 4//7 19//7 28//7
f 1//8 20//8 23//8
f 2//9 22//9 25//9
f 3//10 24//10 27//10
f 18//11 26//11 29//11
f 4//12 28//12 21//12
f 5//13 30//13 34//13
f 6//14 31//14 37//14
f 7//15 32//15 38//15
f 8//16 33//16 35//16
f 35//17 38//17 9//17
f 35//18 33//18 38//18
f 33//19 7//19 38//19
f 38//20 37//20 9//20
f 38//21 32//21 37//21
f 32//22 6//22 37//22
f 37//23 36//23 9//23
f 37//24 31//24 36//24
f 36//25 34//25 9//25
f 36//26 5//26 34//26
f 34//27 35//27 9//27
f 34//28 30//28 35//28
f 30//29 8//29 35//29
f 21//30 33//30 8//30
f 21//31 28//31 33//31
f 28//32 7//32 33//32
f 29//33 32//33 7//33
f 29//34 26//34 32//34
f 26//35 6//35 32//35
f 27//36 31//36 6//36
f 27//37 24//37 31//37
f 24//38 36//38 31//38
f 25//39 5//39 36//39
f 25//40 22//40 5//40
f 23//41 30//41 5//41
f 23//42 20//42 30//42
f 20//43 8//43 30//43
f 28//44 29//44 7//44
f 28//45 19//45 29//45
f 19//46 18//46 29//46
f 26//47 27//47 6//47
f 26//48 18//48 27//48
f 18//49 3//49 27//49
f 24//50 25//50 36//50
f 24//51 16//51 25//51
f 16//52 2//52 25//52
f 22//53 23//53 5//53
f 22//54 12//54 23//54
f 12//55 1//55 23//55
f 20//56 21//56 8//56
f 20//57 13//57 21//57
f 13//58 4//58 21//58
f 14//59 19//59 4//59
f 14//60 17//60 19//60
f 17//61 18//61 19//61
f 17//62 15//62 18//62
f 15//63 3//63 18//63
f 15//64 16//64 3//64
f 15//65 10//65 16//65
f 10//66 2//66 16//66
f 13//67 14//67 4//67
f 13//68 11//68 14//68
f 11//69 15//69 14//69
f 10//70 12//70 2//70
f 10//71 11//71 12//71
f 11//72 1//72 12//72
usemtl Berry
f 39//73 41//73 42//73
f 39//74 40//74 41//74
f 39//75 42//75 43//75
f 40//76 39//76 43//76
f 41//77 44//77 42//77
f 41//78 40//78 44//78
f 43//79 42//79 44//79
f 40//80 43//80 44//80
f 45//73 47//73 48//73
f 45//74 46//74 47//74
f 45//75 48//75 49//75
f 46//76 45//76 49//76
f 47//77 50//77 48//77
f 47//78 46//78 50//78
f 49//79 48//79 50//79
f 46//80 49//80 50//80
f 51//73 53//73 54//73
f 51//74 52//74 53//74
f 51//75 54//75 55//75
f 52//76 51//76 55//76
f 53//77 56//77 54//77
f 53//78 52//78 56//78
f 55//79 54//79 56//79
f 52//80 55//80 56//80
f 57//73 59//73 60//73
f 57//74 58//74 59//74
f 57//75 60//75 61//75
f 58//76 57//76 61//76
f 59//77 62//77 60//77
f 59//78 58//78 62//78
f 61//79 60//79 62//79
f 58//80 61//80 62//80
f 63//73 65//73 66//73
f 63//74 64//74 65//74
f 63//75 66//75 67//75
f 64//76 63//76 67//76
f 65//77 68//77 66//77
f 65//78 64//78 68//78
f 67//79 66//79 68//79
f 64//80 67//80 68//80
f 69//73 71//73 72//73
f 69//74 70//74 71//74
f 69//75 72//75 73//75
f 70//76 69//76 73//76
f 71//77 74//77 72//77
f 71//78 70//78 74//78
f 73//79 72//79 74//79
f 70//80 73//80 74//80
f 75//73 77//73 78//73
f 75//74 76//74 77//74
f 75//75 78//75 79//75
f 76//76 75//76 79//76
f 77//77 80//77 78//77
f 77//78 76//78 80//78
f 79//79 78//79 80//79
f 76//80 79//80 80//80
f 81//73 83//73 84//73
f 81//74 82//74 83//74
f 81//75 84//75 85//75
f 82//76 81//76 85//76
f 83//77 86//77 84//77
f 83//78 82//78 86//78
f 85//79 84//79 86//79
f 82//80 85//80 86//80
f 87//73 89//73 90//73
f 87//74 88//74 89//74
f 87//75 90//75 91//75
f 88//76 87//76 91//76
f 89//77 92//77 90//77
f 89//78 88//78 92//78
f 91//79 90//79 92//79
f 88//80 91//80 92//80
f 93//73 95//73 96//73
f 93//74 94//74 95//74
f 93//75 96//75 97//75
f 94//76 93//76 97//76
f 95//77 98//77 96//77
f 95//78 94//78 98//78
f 97//79 96//79 98//79
f 94//80 97//80 98//80
f 99//73 101//73 102//73
f 99//74 100//74 101//74
f 99//75 102//75 103//75
f 100//76 99//76 103//76
f 101//77 104//77 102//77
f 101//78 100//78 104//78
f 103//79 102//79 104//79
f 100//80 103//80 104//80
f 105//73 107//73 108//73
f 105//74 106//74 107//74
f 105//75 108//75 109//75
f 106//76 105//76 109//76
f 107//77 110//77 108//77
f 107//78 106//78 110//78
f 109//79 108//79 110//79
f 106//80 109//80 110//80
f 111//73 113//73 114//73
f 111//74 112//74 113//74
f 111//75 114//75 115//75
f 112//76 111//76 115//76
f 113//77 116//77 114//77
f 113//78 112//78 116//78
f 115//79 114//79 116//79
f 112//80 115//80 116//80
